#!OML:ASF F:\VICON\USERDATA\INSTALL\rory3\rory3.ASF
:FULLY-SPECIFIED
:DEGREES
224
root -0.636407 19.7529 -1.1058 1.36245 3.04375 0.991196
lowerback 11.9092 -0.602138 0.376191
upperback 2.27558 -0.735348 0.249302
thorax -4.29422 -0.3654 0.160797
lowerneck -12.7611 -0.46531 -6.41302
upperneck 4.60712 -0.0887668 6.53876
head 3.44327 0.164094 3.03821
rclavicle -2.13694e-015 0
rhumerus -42.9328 -14.7442 -55.6031
rradius 35.6808
rwrist 11.8307
rhand -28.0668 3.74613
rfingers 7.12502
rthumb -1.4504 -26.2287
lclavicle -2.13694e-015 0
lhumerus -41.2762 7.36796 70.9203
lradius 48.1522
lwrist 9.29923
lhand -25.2394 22.9676
lfingers 7.12502
lthumb 1.28038 52.9435
rfemur -13.4592 10.2918 17.5585
rtibia 41.1352
rfoot 0.281136 -12.8755
rtoes -4.77604
lfemur -13.8865 -2.4091 -17.0953
ltibia 35.0868
lfoot 9.62282 1.08591
ltoes -19.1679
225
root -0.641457 19.3052 -1.13539 1.10794 2.60663 1.32881
lowerback 12.3178 -0.487868 -0.0655751
upperback 2.36175 -0.644621 0.137934
thorax -4.4255 -0.315348 0.283312
lowerneck -12.5726 -0.439284 -6.29525
upperneck 4.53951 -0.0797689 6.52237
head 3.39194 0.16697 3.01303
rclavicle -4.47266e-016 -2.78299e-015
rhumerus -42.5812 -14.1956 -56.5263
rradius 35.7644
rwrist 11.574
rhand -28.2737 3.53409
rfingers 7.12502
rthumb -1.65026 -26.4393
lclavicle -4.47266e-016 -2.78299e-015
lhumerus -41.7503 6.97009 71.4703
lradius 49.4094
lwrist 9.65499
lhand -25.3544 23.217
lfingers 7.12502
lthumb 1.16933 53.1935
rfemur -14.0495 10.8338 17.0178
rtibia 43.1726
rfoot -3.60038 -10.4946
rtoes -18.5252
lfemur -13.9676 -1.60823 -17.3988
ltibia 37.8329
lfoot 1.27536 -1.70879
ltoes -17.0988
226
root -0.647683 18.89 -1.16737 0.871311 2.23948 1.78059
lowerback 12.7097 -0.403411 -0.608687
upperback 2.56584 -0.612326 -0.0140891
thorax -4.42321 -0.293499 0.428269
lowerneck -12.6327 -0.431669 -6.11915
upperneck 4.34192 -0.0826015 6.46026
head 3.34168 0.166681 2.96394
rclavicle -1.65985e-014 7.55382e-015
rhumerus -41.9217 -13.7635 -57.5422
rradius 35.74
rwrist 11.3317
rhand -28.341 3.06434
rfingers 7.12502
rthumb -1.71526 -26.9085
lclavicle -1.65985e-014 7.55382e-015
lhumerus -41.9936 6.78013 71.9383
lradius 50.6558
lwrist 9.8087
lhand -24.9897 23.2027
lfingers 7.12502
lthumb 1.52154 53.177
rfemur -14.4693 10.9018 16.3744
rtibia 45.5631
rfoot -12.5526 -8.32497
rtoes -21.009
lfemur -13.9033 -0.658149 -17.8126
ltibia 40.6691
lfoot -3.34758 -2.75322
ltoes -18.5218
227
root -0.65401 18.545 -1.19908 0.617396 2.00463 2.29807
lowerback 13.2727 -0.349553 -1.10977
upperback 2.75555 -0.624584 -0.237727
thorax -4.52994 -0.294217 0.483229
lowerneck -12.2575 -0.446405 -6.22651
upperneck 3.64542 -0.101795 6.78877
head 3.07332 0.16415 3.0755
rclavicle -2.68359e-015 3.57812e-015
rhumerus -41.2361 -13.4305 -58.5849
rradius 35.6042
rwrist 11.2246
rhand -28.447 3.01093
rfingers 7.12502
rthumb -1.81762 -26.9611
lclavicle -2.68359e-015 3.57812e-015
lhumerus -42.1592 6.54409 72.3562
lradius 51.934
lwrist 9.91293
lhand -24.7595 22.2231
lfingers 7.12502
lthumb 1.74388 52.1957
rfemur -14.6901 10.4775 15.7376
rtibia 48.0604
rfoot -14.6693 -8.76799
rtoes -22.6259
lfemur -14.4165 0.501071 -18.4167
ltibia 43.4096
lfoot -10.0317 -3.43539
ltoes -28.8933
228
root -0.65953 18.2256 -1.23588 0.346835 1.80641 2.89926
lowerback 13.9788 -0.307275 -1.58246
upperback 2.93558 -0.661515 -0.540866
thorax -4.72447 -0.306979 0.443952
lowerneck -11.6232 -0.506214 -6.30676
upperneck 2.58384 -0.180452 7.12661
head 2.65913 0.125491 3.17919
rclavicle -1.29459e-014 8.54774e-015
rhumerus -40.5156 -13.1903 -59.7208
rradius 35.3787
rwrist 11.3021
rhand -28.6895 2.77284
rfingers 7.12502
rthumb -2.05185 -27.197
lclavicle -1.29459e-014 8.54774e-015
lhumerus -42.1961 6.35553 72.6921
lradius 53.0803
lwrist 9.94174
lhand -24.6071 21.8783
lfingers 7.12502
lthumb 1.89106 51.8497
rfemur -15.2581 10.0346 15.0273
rtibia 50.8081
rfoot -18.8131 -8.83494
rtoes -21.3027
lfemur -15.1554 1.02175 -18.8635
ltibia 45.566
lfoot -14.2086 -5.08594
ltoes -18.8093
229
root -0.671897 17.9079 -1.28263 -0.212286 1.54542 3.58463
lowerback 15.0392 -0.199256 -2.24522
upperback 3.27649 -0.655272 -0.830892
thorax -4.93817 -0.29639 0.519255
lowerneck -11.1147 -0.620972 -6.3439
upperneck 1.18424 -0.301769 7.06669
head 2.41277 0.0381431 3.48802
rclavicle 1.69464e-014 -1.2424e-014
rhumerus -39.5569 -13.2357 -60.8844
rradius 35.0269
rwrist 11.6546
rhand -29.0649 2.20045
rfingers 7.12502
rthumb -2.41441 -27.7656
lclavicle 1.69464e-014 -1.2424e-014
lhumerus -41.9763 6.33879 73.0275
lradius 54.1146
lwrist 9.67193
lhand -23.7867 22.9247
lfingers 7.12502
lthumb 2.68331 52.8876
rfemur -15.8242 10.0764 14.2433
rtibia 53.2915
rfoot -23.3129 -6.60874
rtoes -18.2456
lfemur -15.4587 1.63894 -19.414
ltibia 47.3756
lfoot -17.4061 -6.70714
ltoes -9.66596
230
root -0.693451 17.595 -1.34325 -1.11609 1.28154 4.73463
lowerback 16.651 -0.00685285 -3.55165
upperback 3.73324 -0.684246 -1.15834
thorax -5.31173 -0.293828 0.927636
lowerneck -11.0502 -0.739907 -6.54305
upperneck 0.190342 -0.406835 7.34472
head 2.07989 -0.00817031 3.60244
rclavicle 7.47927e-015 8.44835e-015
rhumerus -38.3914 -13.3214 -62.06
rradius 34.5933
rwrist 12.0103
rhand -29.3858 1.60348
rfingers 7.12502
rthumb -2.7243 -28.3589
lclavicle 7.47927e-015 8.44835e-015
lhumerus -41.6853 6.43011 73.4429
lradius 55.1883
lwrist 9.59387
lhand -23.425 23.65
lfingers 7.12502
lthumb 3.03262 53.6082
rfemur -16.0923 10.025 13.0697
rtibia 55.7991
rfoot -27.4227 -5.99183
rtoes -19.987
lfemur -15.2855 2.11307 -20.5772
ltibia 49.0051
lfoot -20.9158 -7.34665
ltoes -4.63316
231
root -0.717136 17.3168 -1.41667 -2.0533 0.980301 6.37495
lowerback 18.5229 0.308195 -5.40908
upperback 4.21466 -0.721506 -1.53743
thorax -5.77472 -0.285786 1.594
lowerneck -11.5487 -0.911021 -6.75291
upperneck -0.507041 -0.552913 7.42489
head 1.95255 -0.0709331 3.66025
rclavicle -5.36719e-015 -1.80894e-014
rhumerus -36.9216 -13.0935 -63.2877
rradius 33.9467
rwrist 12.112
rhand -29.8154 0.93238
rfingers 7.12502
rthumb -3.13919 -29.0243
lclavicle -5.36719e-015 -1.80894e-014
lhumerus -41.024 6.46086 74.0594
lradius 55.8041
lwrist 10.1449
lhand -23.4436 24.1982
lfingers 7.12502
lthumb 3.01473 54.1566
rfemur -16.4637 9.79918 11.3961
rtibia 58.2159
rfoot -30.6812 -6.87638
rtoes -17.3089
lfemur -15.2352 2.70261 -22.4275
ltibia 50.8922
lfoot -24.5748 -6.97307
ltoes -3.68479
232
root -0.731072 17.0733 -1.48755 -2.57726 0.623214 7.71634
lowerback 20.006 0.621206 -6.79007
upperback 4.51955 -0.71104 -1.87316
thorax -6.21446 -0.256023 2.01994
lowerneck -12.002 -1.06157 -6.80178
upperneck -1.09504 -0.694398 7.36328
head 1.84888 -0.1354 3.6374
rclavicle 1.72446e-014 1.26228e-014
rhumerus -35.5075 -12.5881 -64.5499
rradius 33.0871
rwrist 12.0709
rhand -30.502 0.378139
rfingers 7.12502
rthumb -3.80222 -29.5677
lclavicle 1.72446e-014 1.26228e-014
lhumerus -39.9551 6.54608 74.5567
lradius 55.4854
lwrist 10.1535
lhand -22.6422 24.7299
lfingers 7.12502
lthumb 3.7886 54.676
rfemur -17.3933 9.28858 9.99746
rtibia 60.7108
rfoot -33.6011 -7.55622
rtoes -14.8407
lfemur -15.8613 3.32029 -24.0708
ltibia 53.0387
lfoot -27.9786 -6.25487
ltoes -0.359166
233
root -0.730796 16.8411 -1.54317 -2.38906 0.460038 8.09395
lowerback 20.5204 0.666444 -6.93129
upperback 4.58895 -0.732169 -1.98736
thorax -6.40804 -0.259826 1.98435
lowerneck -11.854 -1.13756 -6.94252
upperneck -1.90003 -0.750875 7.36354
head 1.55896 -0.165681 3.65025
rclavicle -8.02593e-015 -5.96354e-015
rhumerus -34.3213 -12.2577 -65.6123
rradius 31.9012
rwrist 12.4111
rhand -30.9233 -0.0666812
rfingers 7.12502
rthumb -4.20904 -30.0048
lclavicle -8.02593e-015 -5.96354e-015
lhumerus -38.6739 6.76384 75.0066
lradius 54.1192
lwrist 9.753
lhand -23.1129 24.3597
lfingers 7.12502
lthumb 3.33403 54.3134
rfemur -18.8141 8.37769 9.59997
rtibia 62.9066
rfoot -36.289 -7.79846
rtoes -14.1114
lfemur -17.4479 3.47887 -24.7158
ltibia 55.6892
lfoot -30.364 -5.55621
ltoes 1.93191
234
root -0.718657 16.6006 -1.58695 -1.55677 0.514409 7.4613
lowerback 19.9432 0.411075 -5.85479
upperback 4.58148 -0.782313 -1.82576
thorax -6.12497 -0.306709 1.55954
lowerneck -11.3046 -1.19604 -7.12828
upperneck -2.91055 -0.793872 7.24924
head 1.12897 -0.197362 3.62863
rclavicle 1.5207e-014 3.97569e-016
rhumerus -33.2141 -12.3622 -66.4291
rradius 30.4787
rwrist 13.3768
rhand -31.1202 -0.597251
rfingers 7.12502
rthumb -4.39921 -30.5316
lclavicle 1.5207e-014 3.97569e-016
lhumerus -37.1536 6.97686 75.6921
lradius 51.7841
lwrist 10.1195
lhand -24.9105 23.767
lfingers 7.12502
lthumb 1.59798 53.7407
rfemur -20.7402 7.35351 10.3331
rtibia 64.8908
rfoot -38.5748 -8.84677
rtoes -13.5413
lfemur -19.7981 3.15873 -24.2256
ltibia 58.8279
lfoot -31.2529 -6.83144
ltoes 4.89616
235
root -0.709968 16.4653 -1.61491 -0.567047 0.443697 5.85378
lowerback 19.0047 0.121816 -3.89803
upperback 4.60075 -0.679805 -1.36818
thorax -5.63907 -0.290772 0.912261
lowerneck -10.831 -1.25182 -7.1545
upperneck -3.79317 -0.857364 6.92853
head 0.755385 -0.240989 3.5079
rclavicle 7.55382e-015 3.97569e-016
rhumerus -32.139 -12.878 -67.0919
rradius 29.0559
rwrist 14.5685
rhand -31.0843 -0.859613
rfingers 7.12502
rthumb -4.36457 -30.7946
lclavicle 7.55382e-015 3.97569e-016
lhumerus -35.4689 7.44581 76.385
lradius 48.8979
lwrist 10.2927
lhand -25.8168 23.3596
lfingers 7.12502
lthumb 0.722642 53.3382
rfemur -22.5191 7.01314 12.3042
rtibia 66.396
rfoot -40.4866 -10.4832
rtoes -11.5137
lfemur -23.1442 3.0972 -22.5855
ltibia 62.52
lfoot -32.0957 -5.04911
ltoes -0.861318
236
root -0.707699 16.3283 -1.64979 0.108299 0.185921 4.46726
lowerback 18.4137 0.0118711 -2.24546
upperback 4.64999 -0.463115 -1.01069
thorax -5.29628 -0.206405 0.304023
lowerneck -10.568 -1.26081 -6.9947
upperneck -4.23892 -0.886985 6.62121
head 0.560092 -0.265285 3.36408
rclavicle 2.93207e-015 1.55052e-014
rhumerus -31.2857 -13.455 -67.789
rradius 27.6591
rwrist 15.5089
rhand -31.1391 -0.565211
rfingers 7.12502
rthumb -4.41748 -30.4991
lclavicle 2.93207e-015 1.55052e-014
lhumerus -33.9449 7.98344 76.89
lradius 46.0738
lwrist 9.97685
lhand -26.4988 23.1046
lfingers 7.12502
lthumb 0.0639407 53.0843
rfemur -24.2355 7.36031 13.9913
rtibia 68.1245
rfoot -40.8764 -12.3336
rtoes -14.0588
lfemur -26.0984 3.37222 -21.1225
ltibia 66.1651
lfoot -32.5212 -3.77191
ltoes -3.6339
237
root -0.711644 16.1903 -1.69007 0.293819 -0.186221 4.23279
lowerback 18.3276 0.118742 -1.84607
upperback 4.78011 -0.242575 -0.965124
thorax -5.1181 -0.104366 0.0763992
lowerneck -10.5528 -1.24933 -6.93533
upperneck -4.16517 -0.881711 6.52057
head 0.579261 -0.265131 3.3179
rclavicle -5.96354e-015 7.95139e-015
rhumerus -30.549 -13.7867 -68.5343
rradius 26.2362
rwrist 16.2516
rhand -31.0968 -0.21465
rfingers 7.12502
rthumb -4.37658 -30.1494
lclavicle -5.96354e-015 7.95139e-015
lhumerus -32.5732 8.57306 77.2855
lradius 43.3366
lwrist 9.80604
lhand -26.838 23.4611
lfingers 7.12502
lthumb -0.263612 53.4407
rfemur -25.7251 7.94099 14.2695
rtibia 70.0801
rfoot -41.88 -11.947
rtoes -13.4184
lfemur -28.0853 3.70287 -20.9349
ltibia 69.4023
lfoot -32.7792 -3.56263
ltoes -3.88923
